<?xml version="1.0" encoding="UTF-8" standalone="no"?>
<svg width="16px" height="16px" viewBox="0 0 16 16" version="1.1" xmlns="http://www.w3.org/2000/svg" xmlns:xlink="http://www.w3.org/1999/xlink">
    <!-- Generator: Sketch 41.2 (35397) - http://www.bohemiancoding.com/sketch -->
    <title>[icon]/bag/dark</title>
    <desc>Created with Sketch.</desc>
    <defs></defs>
    <g id="Symbols" stroke="none" stroke-width="1" fill="none" fill-rule="evenodd">
        <g id="[icon]/bag/dark" fill="#0288A7">
            <path d="M12,1.00292723 C12,0.437880432 11.5536144,0 11.0029699,0 L4.99703014,0 C4.45303631,0 4,0.449025814 4,1.00292723 L4,2.99999371 L2.33333333,2.99999371 C1.83333333,2.99999371 1.40740741,3.37036408 1.35185185,3.85184556 L0.0185185185,14.8518414 C-4.18415302e-14,14.9073969 0,14.944434 0,14.9999895 C0,15.5555556 0.444444444,16 1,16 L15,16 C15.5555556,16 16,15.5555556 16,15 C16,14.944434 16,14.9073969 15.9814815,14.8518414 L14.6481481,3.85184556 C14.5740741,3.37036408 14.1666667,2.99999371 13.6666667,2.99999371 L12,2.99999371 L12,1.00292723 Z M10.6500063,2.99999371 L10.6500063,1.3500061 L5.3500061,1.3500061 L5.3500061,2.99999371 L10.6500063,2.99999371 L10.6500063,2.99999371 Z" id="svg"></path>
        </g>
    </g>
</svg>