<?xml version="1.0" encoding="UTF-8" standalone="no"?>
<svg width="16px" height="16px" viewBox="0 0 16 16" version="1.1" xmlns="http://www.w3.org/2000/svg" xmlns:xlink="http://www.w3.org/1999/xlink">
    <!-- Generator: Sketch 41.2 (35397) - http://www.bohemiancoding.com/sketch -->
    <title>[icon]/basket/dark</title>
    <desc>Created with Sketch.</desc>
    <defs></defs>
    <g id="Symbols" stroke="none" stroke-width="1" fill="none" fill-rule="evenodd">
        <g id="[icon]/basket/dark" fill="#0288A7">
            <path d="M10.8340582,5.49773653 L8.69749529,3.36117365 C8.59416927,3.25784763 8.59803247,3.10132042 8.69695826,3.00239463 L9.62693285,2.07242004 C9.72153036,1.97782254 9.88648948,1.97373469 9.98571187,2.07295707 L13.4104913,5.49773653 L15.6363636,5.49773653 C15.8383838,5.49773653 16,5.65935269 16,5.86137289 L16,7.31591835 C16,7.51793855 15.8383838,7.67955471 15.6363636,7.67955471 L0.363636364,7.67955471 C0.161616162,7.67955471 0,7.51793855 0,7.31591835 L0,5.86137289 C0,5.65935269 0.161616162,5.49773653 0.363636364,5.49773653 L2.58950867,5.49773653 L6.01428813,2.07295707 C6.11351052,1.97373469 6.27846964,1.97782254 6.37306715,2.07242004 L7.30304174,3.00239463 C7.40196753,3.10132042 7.40583073,3.25784763 7.30250471,3.36117365 L5.16594183,5.49773653 L10.8340582,5.49773653 L10.8340582,5.49773653 Z M1.45454545,9.13410016 L2.54545455,14.0548648 C2.56565657,14.1505582 2.72727273,14.2249864 2.90909091,14.2249864 L13.0909091,14.2249864 C13.2727273,14.2249864 13.4343434,14.1505582 13.4545455,14.0548648 L14.5454545,9.13410016 L1.45454545,9.13410016 L1.45454545,9.13410016 Z" id="svg"></path>
        </g>
    </g>
</svg>