<?xml version="1.0" encoding="UTF-8" standalone="no"?>
<svg width="16px" height="16px" viewBox="0 0 16 16" version="1.1" xmlns="http://www.w3.org/2000/svg" xmlns:xlink="http://www.w3.org/1999/xlink">
    <!-- Generator: Sketch 41.2 (35397) - http://www.bohemiancoding.com/sketch -->
    <title>[icon]/cart/dark</title>
    <desc>Created with Sketch.</desc>
    <defs></defs>
    <g id="Symbols" stroke="none" stroke-width="1" fill="none" fill-rule="evenodd">
        <g id="[icon]/cart/dark" fill="#0288A7">
            <path d="M4.66666667,14.3333333 C4.66666667,15.2592593 5.40740741,16 6.33333333,16 C7.25925926,16 8,15.2592593 8,14.3333333 C8,13.4074074 7.25925926,12.6666667 6.33333333,12.6666667 C5.40740741,12.6666667 4.66666667,13.4074074 4.66666667,14.3333333 L4.66666667,14.3333333 Z M10,14.3333333 C10,15.2592593 10.7407407,16 11.6666667,16 C12.5925926,16 13.3333333,15.2592593 13.3333333,14.3333333 C13.3333333,13.4074074 12.5925926,12.6666667 11.6666667,12.6666667 C10.7407407,12.6666667 10,13.4074074 10,14.3333333 L10,14.3333333 Z M15.9814815,3.40740741 C16.0185185,3.31481481 16,3.2037037 15.9259259,3.12962963 C15.8703704,3.05555556 15.7592593,3 15.6666667,3 L4.31481481,3 L3.75925926,0.759259259 C3.64814815,0.314814815 3.24074074,0 2.77777778,0 L1,0 C0.444444444,0 0,0.444444444 0,1 C0,1.55555556 0.444444444,2 1,2 L2,2 L4.03703704,10.2407407 C4.12962963,10.6851852 4.53703704,11 5,11 L12.9814815,11 C13.4444444,11 13.8333333,10.6851852 13.9444444,10.2407407 L15.9814815,3.40740741 Z" id="svg"></path>
        </g>
    </g>
</svg>