<?xml version="1.0" encoding="UTF-8" standalone="no"?>
<svg width="16px" height="16px" viewBox="0 0 16 16" version="1.1" xmlns="http://www.w3.org/2000/svg" xmlns:xlink="http://www.w3.org/1999/xlink">
    <!-- Generator: Sketch 41.2 (35397) - http://www.bohemiancoding.com/sketch -->
    <title>[icon]/caution/dark</title>
    <desc>Created with Sketch.</desc>
    <defs></defs>
    <g id="Symbols" stroke="none" stroke-width="1" fill="none" fill-rule="evenodd">
        <g id="[icon]/caution/dark" fill="#0288A7">
            <path d="M8,1 L16,15 L0,15 L8,1 Z M8.76044568,11 L7.23955432,11 L7,5 L9,5 L8.76044568,11 Z M7,13 C7,12.7080853 7.09536447,12.4684428 7.28609626,12.2810651 C7.47682805,12.0936874 7.71479358,12 8,12 C8.28520642,12 8.52317195,12.0936874 8.71390374,12.2810651 C8.90463553,12.4684428 9,12.7080853 9,13 C9,13.2919147 8.90463553,13.5315572 8.71390374,13.7189349 C8.52317195,13.9063126 8.28520642,14 8,14 C7.71479358,14 7.47682805,13.9063126 7.28609626,13.7189349 C7.09536447,13.5315572 7,13.2919147 7,13 Z" id="svg"></path>
        </g>
    </g>
</svg>