<?xml version="1.0" encoding="UTF-8" standalone="no"?>
<svg width="16px" height="16px" viewBox="0 0 16 16" version="1.1" xmlns="http://www.w3.org/2000/svg" xmlns:xlink="http://www.w3.org/1999/xlink">
    <!-- Generator: Sketch 41.2 (35397) - http://www.bohemiancoding.com/sketch -->
    <title>[icon]/chevron/left/dark</title>
    <desc>Created with Sketch.</desc>
    <defs></defs>
    <g id="Symbols" stroke="none" stroke-width="1" fill="none" fill-rule="evenodd">
        <g id="[icon]/chevron/left/dark" fill="#0288A7">
            <path d="M4.42985247,0.0925658085 L2.0971941,2.42522418 C1.96760197,2.55481631 1.96760197,2.77697426 2.0971941,2.90656639 L7.18831357,7.99768585 L2.0971941,13.0888053 C1.96760197,13.2183975 1.96760197,13.4405554 2.0971941,13.5701475 L4.42985247,15.9028059 C4.55944461,16.032398 4.78160255,16.032398 4.91119468,15.9028059 L12.5756436,8.23835696 C12.7052358,8.10876482 12.7052358,7.88660688 12.5756436,7.75701475 C12.5756436,7.75701475 10.7223392,5.90371035 9.79568702,4.97705816 C8.16752291,3.34889404 4.91119468,0.0925658085 4.91119468,0.0925658085 C4.83714203,0.0370263234 4.76308938,0 4.67052358,0 C4.57795777,0 4.50390512,0.0370263234 4.42985247,0.0925658085 Z" id="svg" transform="translate(7.336419, 8.000000) scale(-1, 1) translate(-7.336419, -8.000000) "></path>
        </g>
    </g>
</svg>