<?xml version="1.0" encoding="UTF-8" standalone="no"?>
<svg width="16px" height="16px" viewBox="0 0 16 16" version="1.1" xmlns="http://www.w3.org/2000/svg" xmlns:xlink="http://www.w3.org/1999/xlink">
    <!-- Generator: Sketch 41.2 (35397) - http://www.bohemiancoding.com/sketch -->
    <title>[icon]/chevron/top/dark</title>
    <desc>Created with Sketch.</desc>
    <defs></defs>
    <g id="Symbols" stroke="none" stroke-width="1" fill="none" fill-rule="evenodd">
        <g id="[icon]/chevron/top/dark" fill="#0288A7">
            <path d="M5.09343361,0.0925658085 L2.76077524,2.42522418 C2.63118311,2.55481631 2.63118311,2.77697426 2.76077524,2.90656639 L7.85189471,7.99768585 L2.76077524,13.0888053 C2.63118311,13.2183975 2.63118311,13.4405554 2.76077524,13.5701475 L5.09343361,15.9028059 C5.22302574,16.032398 5.44518369,16.032398 5.57477582,15.9028059 L13.2392248,8.23835696 C13.3688169,8.10876482 13.3688169,7.88660688 13.2392248,7.75701475 C13.2392248,7.75701475 11.3859204,5.90371035 10.4592682,4.97705816 C8.83110405,3.34889404 5.57477582,0.0925658085 5.57477582,0.0925658085 C5.50072317,0.0370263234 5.42667052,0 5.33410472,0 C5.24153891,0 5.16748626,0.0370263234 5.09343361,0.0925658085 Z" id="svg" transform="translate(8.000000, 8.000000) scale(-1, -1) rotate(90.000000) translate(-8.000000, -8.000000) "></path>
        </g>
    </g>
</svg>