<?xml version="1.0" encoding="UTF-8" standalone="no"?>
<svg width="16px" height="16px" viewBox="0 0 16 16" version="1.1" xmlns="http://www.w3.org/2000/svg" xmlns:xlink="http://www.w3.org/1999/xlink">
    <!-- Generator: Sketch 41.2 (35397) - http://www.bohemiancoding.com/sketch -->
    <title>[icon]/chevron/right/dark</title>
    <desc>Created with Sketch.</desc>
    <defs></defs>
    <g id="Symbols" stroke="none" stroke-width="1" fill="none" fill-rule="evenodd">
        <g id="[icon]/chevron/right/dark" fill="#0288A7">
            <path d="M5.42985247,0.0925658085 L3.0971941,2.42522418 C2.96760197,2.55481631 2.96760197,2.77697426 3.0971941,2.90656639 L8.18831357,7.99768585 L3.0971941,13.0888053 C2.96760197,13.2183975 2.96760197,13.4405554 3.0971941,13.5701475 L5.42985247,15.9028059 C5.55944461,16.032398 5.78160255,16.032398 5.91119468,15.9028059 L13.5756436,8.23835696 C13.7052358,8.10876482 13.7052358,7.88660688 13.5756436,7.75701475 C13.5756436,7.75701475 11.7223392,5.90371035 10.795687,4.97705816 C9.16752291,3.34889404 5.91119468,0.0925658085 5.91119468,0.0925658085 C5.83714203,0.0370263234 5.76308938,0 5.67052358,0 C5.57795777,0 5.50390512,0.0370263234 5.42985247,0.0925658085 Z" id="svg"></path>
        </g>
    </g>
</svg>