<?xml version="1.0" encoding="UTF-8" standalone="no"?>
<svg width="16px" height="16px" viewBox="0 0 16 16" version="1.1" xmlns="http://www.w3.org/2000/svg" xmlns:xlink="http://www.w3.org/1999/xlink">
    <!-- Generator: Sketch 41.2 (35397) - http://www.bohemiancoding.com/sketch -->
    <title>[icon]/close/dark</title>
    <desc>Created with Sketch.</desc>
    <defs></defs>
    <g id="Symbols" stroke="none" stroke-width="1" fill="none" fill-rule="evenodd">
        <g id="[icon]/close/dark" fill="#0288A7">
            <path d="M10.8284271,8 L14.7200648,4.10836231 C14.9111337,3.91729345 14.9157909,3.6020824 14.7242471,3.41053863 L12.5894614,1.27575287 C12.3947092,1.08100071 12.0854913,1.08608158 11.8916377,1.27993519 L8,5.17157288 L4.17343789,1.34501077 C3.93507066,1.10664353 3.57761327,1.10867823 3.35588529,1.33040621 L1.33040621,3.35588529 C1.10234253,3.58394897 1.11521691,3.94364404 1.34501077,4.17343789 L5.17157288,8 L1.27993519,11.8916377 C1.08886633,12.0827065 1.0842091,12.3979176 1.27575287,12.5894614 L3.41053863,14.7242471 C3.60529079,14.9189993 3.91450871,14.9139184 4.10836231,14.7200648 L8,10.8284271 L11.8265621,14.6549892 C12.0649293,14.8933565 12.4223867,14.8913218 12.6441147,14.6695938 L14.6695938,12.6441147 C14.8976575,12.416051 14.8847831,12.056356 14.6549892,11.8265621 L10.8284271,8 L10.8284271,8 Z" id="svg"></path>
        </g>
    </g>
</svg>