<?xml version="1.0" encoding="UTF-8" standalone="no"?>
<svg width="16px" height="16px" viewBox="0 0 16 16" version="1.1" xmlns="http://www.w3.org/2000/svg" xmlns:xlink="http://www.w3.org/1999/xlink">
    <!-- Generator: Sketch 41.2 (35397) - http://www.bohemiancoding.com/sketch -->
    <title>[icon]/edit/dark</title>
    <desc>Created with Sketch.</desc>
    <defs></defs>
    <g id="Symbols" stroke="none" stroke-width="1" fill="none" fill-rule="evenodd">
        <g id="[icon]/edit/dark" fill="#0288A7">
            <path d="M12.9993997,5.99538609 L4.75863739,14.2361484 C4.72160026,14.2731856 4.68456313,14.2917041 4.64752599,14.3102227 L0.462329831,15.9768938 C0.40677413,15.9954123 0.369736995,15.9954123 0.332699861,15.9954123 C0.240107026,15.9954123 0.166032757,15.9583752 0.0919584891,15.9028195 C-0.000634346334,15.8102266 -0.0191529134,15.6620781 0.0178842208,15.5324481 L1.68455526,11.347252 C1.70307383,11.3102148 1.72159239,11.2731777 1.75862953,11.2361406 L9.99939188,2.99537823 L12.9993997,5.99538609 Z M15.7031105,1.86574563 C16.0920005,2.27315411 16.0920005,2.90278539 15.7031105,3.2916753 L13.9994024,4.99538347 L10.9993945,1.9953756 L12.7031027,0.291667432 C13.0919926,-0.0972224772 13.7216239,-0.0972224772 14.1290323,0.291667432 L15.7031105,1.86574563 Z" id="pencil"></path>
        </g>
    </g>
</svg>