<?xml version="1.0" encoding="UTF-8" standalone="no"?>
<svg width="16px" height="16px" viewBox="0 0 16 16" version="1.1" xmlns="http://www.w3.org/2000/svg" xmlns:xlink="http://www.w3.org/1999/xlink">
    <!-- Generator: Sketch 41.2 (35397) - http://www.bohemiancoding.com/sketch -->
    <title>[icon]/help/dark</title>
    <desc>Created with Sketch.</desc>
    <defs></defs>
    <g id="Symbols" stroke="none" stroke-width="1" fill="none" fill-rule="evenodd">
        <g id="[icon]/help/dark" fill="#0288A7">
            <path d="M0,8 C0,12.4259259 3.57407407,16 8,16 C12.4074074,16 16,12.4259259 16,8 C16,3.59259259 12.4074074,0 8,0 C3.57407407,0 0,3.59259259 0,8 Z M8,14 C7.25925926,14 6.66666667,13.4074074 6.66666667,12.6666667 C6.66666667,11.9259259 7.25925926,11.3333333 8,11.3333333 C8.74074074,11.3333333 9.33333333,11.9259259 9.33333333,12.6666667 C9.33333333,13.4074074 8.74074074,14 8,14 L8,14 Z M9,9.33333333 L9,9.66666667 L7,9.66666667 L7,9 C7,7 9.66666667,7 9.66666667,5.66666667 C9.66666667,5 9,4.33333333 8,4.33333333 C7,4.33333333 6,5.33333333 6,5.33333333 L4.66666667,4 C4.66666667,4 6,2.33333333 8,2.33333333 C10.0185185,2.33333333 11.6666667,3.66666667 11.6666667,5.66666667 C11.6666667,8.33333333 9,8.33333333 9,9.33333333 L9,9.33333333 Z" id="svg"></path>
        </g>
    </g>
</svg>