<?xml version="1.0" encoding="UTF-8"?>
<svg width="16px" height="16px" viewBox="0 0 16 16" version="1.1" xmlns="http://www.w3.org/2000/svg" xmlns:xlink="http://www.w3.org/1999/xlink">
    <!-- Generator: Sketch 47.1 (45422) - http://www.bohemiancoding.com/sketch -->
    <title>[icons]/Icon/language/--dark</title>
    <desc>Created with Sketch.</desc>
    <defs></defs>
    <g id="Symbols" stroke="none" stroke-width="1" fill="none" fill-rule="evenodd">
        <g id="[icons]/Icon/language/--dark" fill-rule="nonzero" fill="#0288A7">
            <path d="M12.4752297,5.33333333 L16,14 L14.5588775,14 L13.4498698,11.3333333 L9.90917967,11.3333333 L8.68194107,14 L7.33333333,14 L10.9902944,5.33333333 L12.4752297,5.33333333 Z M3.91836733,8.54545453 C2.9387755,9.30303027 0.653061221,10.5151515 0.653061221,10.5151515 L0,9.6060606 C1.30612244,8.8484848 1.63265305,8.69696967 3.1020408,7.6363636 C2.76538774,7.34590907 1.14285714,5.66666666 0.979591827,4.75757575 L2.28571427,4.75757575 C2.9387755,6.12121211 3.91836733,6.87878787 3.91836733,6.87878787 C5.55102039,5.66666666 5.55102039,4 5.55102039,4 L6.8571428,4 C6.8571428,4 6.69387753,5.96969695 4.89795916,7.6363636 C5.71428569,8.3939394 6.53061221,9 8,9.6060606 L7.51020407,10.6666667 C5.87755099,10.060606 4.89795916,9.30303027 3.91836733,8.54545453 Z M8,4 L0,4 L0,2.66666667 L3.33333333,2.66666667 L3.33333333,1.33333333 L4.66666667,1.33333333 L4.66666667,2.66666667 L8,2.66666667 L8,4 Z M13,10 L11.6923235,6.66666667 L10.3333333,10 L13,10 L13,10 Z" id="Shape"></path>
        </g>
    </g>
</svg>