<?xml version="1.0" encoding="UTF-8" standalone="no"?>
<svg width="16px" height="16px" viewBox="0 0 16 16" version="1.1" xmlns="http://www.w3.org/2000/svg" xmlns:xlink="http://www.w3.org/1999/xlink">
    <!-- Generator: Sketch 41.2 (35397) - http://www.bohemiancoding.com/sketch -->
    <title>[icon]/like/dark</title>
    <desc>Created with Sketch.</desc>
    <defs></defs>
    <g id="Symbols" stroke="none" stroke-width="1" fill="none" fill-rule="evenodd">
        <g id="[icon]/like/dark" fill="#0288A7">
            <path d="M2.66666667,15.6666667 L2.66666667,6.33333333 C2.66666667,6.14814815 2.51851852,6 2.33333333,6 L0.333333333,6 C0.148148148,6 0,6.14814815 0,6.33333333 L0,15.6666667 C0,15.8518519 0.148148148,16 0.333333333,16 L2.33333333,16 C2.51851852,16 2.66666667,15.8518519 2.66666667,15.6666667 L2.66666667,15.6666667 Z M15.1851852,8.83333333 C15.6666667,8.59259259 16,8.07407407 16,7.5 C16,6.66666667 15.3333333,6 14.5,6 L11,6 C10.8888889,6 10.7777778,5.94444444 10.7222222,5.85185185 C10.6666667,5.75925926 10.6481481,5.64814815 10.6851852,5.53703704 C10.7037037,5.53703704 11.3333333,3.92592593 11.3333333,2.66666667 C11.3333333,1.94444444 11.1296296,1.25925926 10.7592593,0.740740741 C10.4444444,0.277777778 10.037037,0 9.66666667,0 C9.11111111,0 8.66666667,0.444444444 8.66666667,1 C8.66666667,3 8,4.33333333 4,7 L4,14 L7.42592593,15.5925926 C7.92592593,15.8148148 8.77777778,16 9.33333333,16 L12.8333333,16 C13.6666667,16 14.3333333,15.3333333 14.3333333,14.5 C14.3333333,14.2962963 14.2962963,14.0925926 14.2037037,13.9074074 C14.8703704,13.6851852 15.3333333,13.0555556 15.3333333,12.3333333 C15.3333333,12.037037 15.2592593,11.7777778 15.1296296,11.537037 C15.6481481,11.2962963 16,10.7777778 16,10.1666667 C16,9.59259259 15.6666667,9.09259259 15.1851852,8.83333333 Z" id="like"></path>
        </g>
    </g>
</svg>