<?xml version="1.0" encoding="UTF-8" standalone="no"?>
<svg width="16px" height="16px" viewBox="0 0 16 16" version="1.1" xmlns="http://www.w3.org/2000/svg" xmlns:xlink="http://www.w3.org/1999/xlink">
    <!-- Generator: Sketch 41.2 (35397) - http://www.bohemiancoding.com/sketch -->
    <title>[icon]/location/dark</title>
    <desc>Created with Sketch.</desc>
    <defs></defs>
    <g id="Symbols" stroke="none" stroke-width="1" fill="none" fill-rule="evenodd">
        <g id="[icon]/location/dark" fill="#0288A7">
            <path d="M8.16667016,-2.0980835e-05 C5.22222572,-2.0980835e-05 2.83333683,2.38886791 2.83333683,5.33331235 C2.83333683,6.2777568 3.07407757,7.1851642 3.51852202,7.94442346 L7.87037387,15.8333124 C7.92592942,15.9259049 8.03704053,15.999979 8.16667016,15.999979 C8.27778127,15.999979 8.4074109,15.9259049 8.46296646,15.8333124 L12.8148183,7.94442346 C13.2407442,7.1851642 13.5000035,6.2777568 13.5000035,5.33331235 C13.5000035,2.38886791 11.1111146,-2.0980835e-05 8.16667016,-2.0980835e-05 L8.16667016,-2.0980835e-05 Z M8.16667016,7.33331235 C7.05555905,7.33331235 6.16667016,6.44442346 6.16667016,5.33331235 C6.16667016,4.22220124 7.05555905,3.33331235 8.16667016,3.33331235 C9.27778127,3.33331235 10.1666702,4.22220124 10.1666702,5.33331235 C10.1666702,6.44442346 9.27778127,7.33331235 8.16667016,7.33331235 L8.16667016,7.33331235 Z" id="location"></path>
        </g>
    </g>
</svg>