<?xml version="1.0" encoding="UTF-8" standalone="no"?>
<svg width="16px" height="16px" viewBox="0 0 16 16" version="1.1" xmlns="http://www.w3.org/2000/svg" xmlns:xlink="http://www.w3.org/1999/xlink">
    <!-- Generator: Sketch 41.2 (35397) - http://www.bohemiancoding.com/sketch -->
    <title>[icon]/lock/dark</title>
    <desc>Created with Sketch.</desc>
    <defs></defs>
    <g id="Symbols" stroke="none" stroke-width="1" fill="none" fill-rule="evenodd">
        <g id="[icon]/lock/dark" fill="#0288A7">
            <path d="M13.0000026,6.99997902 L12.0000026,6.99997902 L12.0000026,3.99997902 C12.0000026,1.79627532 10.2037063,-2.0980835e-05 8.00000262,-2.0980835e-05 C5.79629892,-2.0980835e-05 4.00000262,1.79627532 4.00000262,3.99997902 L4.00000262,6.99997902 L3.00000262,6.99997902 C2.44444707,6.99997902 2.00000262,7.44442346 2.00000262,7.99997902 L2.00000262,14.999979 C2.00000262,15.5555346 2.44444707,15.999979 3.00000262,15.999979 L13.0000026,15.999979 C13.5555582,15.999979 14.0000026,15.5555346 14.0000026,14.999979 L14.0000026,7.99997902 C14.0000026,7.44442346 13.5555582,6.99997902 13.0000026,6.99997902 L13.0000026,6.99997902 Z M6.00000262,3.99997902 C6.00000262,2.88886791 6.88889151,1.99997902 8.00000262,1.99997902 C9.11111373,1.99997902 10.0000026,2.88886791 10.0000026,3.99997902 L10.0000026,6.99997902 L6.00000262,6.99997902 L6.00000262,3.99997902 Z" id="lock"></path>
        </g>
    </g>
</svg>