<?xml version="1.0" encoding="UTF-8" standalone="no"?>
<svg width="16px" height="16px" viewBox="0 0 16 16" version="1.1" xmlns="http://www.w3.org/2000/svg" xmlns:xlink="http://www.w3.org/1999/xlink">
    <!-- Generator: Sketch 41.2 (35397) - http://www.bohemiancoding.com/sketch -->
    <title>[icon]/menu/dark</title>
    <desc>Created with Sketch.</desc>
    <defs></defs>
    <g id="Symbols" stroke="none" stroke-width="1" fill="none" fill-rule="evenodd">
        <g id="[icon]/menu/dark" fill="#0288A7">
            <path d="M15.3334932,3 L0.666762558,3 C0.486103786,3 0.329865273,3.05501946 0.197919164,3.16505838 C0.0659730546,3.2750973 0,3.40539532 0,3.55595244 L0,4.44404756 C0,4.59460468 0.0659730546,4.7249027 0.197919164,4.83494162 C0.329993128,4.94498054 0.486231641,5 0.666762558,5 L15.3334932,5 C15.5140241,5 15.6702626,4.94498054 15.8022087,4.83494162 C15.9340269,4.7249027 16,4.59460468 16,4.44404756 L16,3.55595244 C16,3.40539532 15.9341548,3.2750973 15.8022087,3.16505838 C15.6702626,3.05501946 15.5140241,3 15.3334932,3 Z M0.666762558,7 C0.486103786,7 0.329865273,7.05501653 0.197919164,7.16504958 C0.0659730546,7.27508263 0,7.40537371 0,7.55592281 L0,8.44397057 C0,8.59451967 0.0659730546,8.72502399 0.197919164,8.83495042 C0.329993128,8.94487685 0.486231641,9 0.666762558,9 L15.3334932,9 C15.5140241,9 15.6702626,8.94487685 15.8022087,8.83495042 C15.9340269,8.72502399 16,8.59451967 16,8.44397057 L16,7.55592281 C16,7.40537371 15.9340269,7.27508263 15.8022087,7.16504958 C15.6702626,7.05501653 15.5141519,7 15.3334932,7 L0.666762558,7 Z M0.666762558,11 C0.486103786,11 0.329865273,11.0551231 0.197919164,11.1651562 C0.0659730546,11.2750826 0,11.4054803 0,11.5560294 L0,12.4440772 C0,12.5946263 0.0659730546,12.7249174 0.197919164,12.8349504 C0.329993128,12.9449835 0.486231641,13 0.666762558,13 L15.3334932,13 C15.5140241,13 15.6702626,12.9449835 15.8022087,12.8349504 C15.9340269,12.7249174 16,12.5946263 16,12.4440772 L16,11.5560294 C16,11.4054803 15.9342827,11.2750826 15.8022087,11.1651562 C15.6702626,11.0551231 15.5141519,11 15.3334932,11 L0.666762558,11 Z" id="svg"></path>
        </g>
    </g>
</svg>