<?xml version="1.0" encoding="UTF-8" standalone="no"?>
<svg width="16px" height="16px" viewBox="0 0 16 16" version="1.1" xmlns="http://www.w3.org/2000/svg" xmlns:xlink="http://www.w3.org/1999/xlink">
    <!-- Generator: Sketch 41.2 (35397) - http://www.bohemiancoding.com/sketch -->
    <title>[icon]/more/dark</title>
    <desc>Created with Sketch.</desc>
    <defs></defs>
    <g id="Symbols" stroke="none" stroke-width="1" fill="none" fill-rule="evenodd">
        <g id="[icon]/more/dark" fill="#0288A7">
            <path d="M2,10 C3.1045695,10 4,9.1045695 4,8 C4,6.8954305 3.1045695,6 2,6 C0.8954305,6 0,6.8954305 0,8 C0,9.1045695 0.8954305,10 2,10 Z M8,10 C9.1045695,10 10,9.1045695 10,8 C10,6.8954305 9.1045695,6 8,6 C6.8954305,6 6,6.8954305 6,8 C6,9.1045695 6.8954305,10 8,10 Z M14,10 C15.1045695,10 16,9.1045695 16,8 C16,6.8954305 15.1045695,6 14,6 C12.8954305,6 12,6.8954305 12,8 C12,9.1045695 12.8954305,10 14,10 Z" id="Combined-Shape"></path>
        </g>
    </g>
</svg>