<?xml version="1.0" encoding="UTF-8" standalone="no"?>
<svg width="16px" height="16px" viewBox="0 0 16 16" version="1.1" xmlns="http://www.w3.org/2000/svg" xmlns:xlink="http://www.w3.org/1999/xlink">
    <!-- Generator: Sketch 41.2 (35397) - http://www.bohemiancoding.com/sketch -->
    <title>[icon]/plus/dark</title>
    <desc>Created with Sketch.</desc>
    <defs></defs>
    <g id="Symbols" stroke="none" stroke-width="1" fill="none" fill-rule="evenodd">
        <g id="[icon]/plus/dark" fill="#0288A7">
            <path d="M10,6 L10,0.496393204 C10,0.22618103 9.78040529,0 9.50952148,0 L6.49047852,0 C6.21505737,0 6,0.222242807 6,0.496393204 L6,6 L0.588423967,6 C0.251321793,6 0,6.25419929 0,6.56777 L0,9.43223 C0,9.75476074 0.263446384,10 0.588423967,10 L6,10 L6,15.5036068 C6,15.773819 6.21959471,16 6.49047852,16 L9.50952148,16 C9.78494263,16 10,15.7777572 10,15.5036068 L10,10 L15.411576,10 C15.7486782,10 16,9.74580071 16,9.43223 L16,6.56777 C16,6.24523926 15.7365536,6 15.411576,6 L10,6 Z" id="svg"></path>
        </g>
    </g>
</svg>