<?xml version="1.0" encoding="UTF-8"?>
<svg width="16px" height="16px" viewBox="0 0 16 16" version="1.1" xmlns="http://www.w3.org/2000/svg" xmlns:xlink="http://www.w3.org/1999/xlink">
    <!-- Generator: Sketch 47.1 (45422) - http://www.bohemiancoding.com/sketch -->
    <title>[icons]/Icon/share/print/--dark</title>
    <desc>Created with Sketch.</desc>
    <defs></defs>
    <g id="Symbols" stroke="none" stroke-width="1" fill="none" fill-rule="evenodd">
        <g id="[icons]/Icon/share/print/--dark" fill-rule="nonzero" fill="#0288A7">
            <path d="M13.6,5 L2.4,5 C1.072,5 0,6.072 0,7.4 L0,12.2 L3.2,12.2 L3.2,15.4 L12.8,15.4 L12.8,12.2 L16,12.2 L16,7.4 C16,6.072 14.928,5 13.6,5 Z M11.2,13.8 L4.8,13.8 L4.8,9.8 L11.2,9.8 L11.2,13.8 Z M13.6,8.2 C13.16,8.2 12.8,7.84 12.8,7.4 C12.8,6.96 13.16,6.6 13.6,6.6 C14.04,6.6 14.4,6.96 14.4,7.4 C14.4,7.84 14.04,8.2 13.6,8.2 Z M12.8,1 L3.2,1 L3.2,4.2 L12.8,4.2 L12.8,1 Z" id="print"></path>
        </g>
    </g>
</svg>