<?xml version="1.0" encoding="UTF-8" standalone="no"?>
<svg width="16px" height="16px" viewBox="0 0 16 16" version="1.1" xmlns="http://www.w3.org/2000/svg" xmlns:xlink="http://www.w3.org/1999/xlink">
    <!-- Generator: Sketch 41.2 (35397) - http://www.bohemiancoding.com/sketch -->
    <title>[icon]/review/dark</title>
    <desc>Created with Sketch.</desc>
    <defs></defs>
    <g id="Symbols" stroke="none" stroke-width="1" fill="none" fill-rule="evenodd">
        <g id="[icon]/review/dark" fill="#0288A7">
            <path d="M15.9444444,8.14814815 L15.9074074,8.09259259 C15.9074074,8.09259259 12.5,3 8,3 C3.5,3 0.0555555556,8.14814815 0.0555555556,8.14814815 C-0.0185185185,8.25925926 -0.0185185185,8.40740741 0.0555555556,8.51851852 C0.0555555556,8.51851852 3.5,13.6666667 8,13.6666667 C12.5,13.6666667 15.9444444,8.51851852 15.9444444,8.51851852 C16.0185185,8.40740741 16.0185185,8.25925926 15.9444444,8.14814815 Z M8,11.3333333 C6.33333333,11.3333333 5,10 5,8.33333333 C5,6.68518519 6.33333333,5.33333333 8,5.33333333 C9.64814815,5.33333333 11,6.68518519 11,8.33333333 C11,10 9.64814815,11.3333333 8,11.3333333 Z" id="eye"></path>
        </g>
    </g>
</svg>