<?xml version="1.0" encoding="UTF-8" standalone="no"?>
<svg width="16px" height="16px" viewBox="0 0 16 16" version="1.1" xmlns="http://www.w3.org/2000/svg" xmlns:xlink="http://www.w3.org/1999/xlink">
    <!-- Generator: Sketch 41.2 (35397) - http://www.bohemiancoding.com/sketch -->
    <title>[icon]/search/dark</title>
    <desc>Created with Sketch.</desc>
    <defs></defs>
    <g id="Symbols" stroke="none" stroke-width="1" fill="none" fill-rule="evenodd">
        <g id="[icon]/search/dark" fill="#0288A7">
            <path d="M15.6445231,13.9040791 L12.3464483,10.6060043 C13.1413145,9.45861179 13.5389245,8.17962676 13.5389245,6.76940326 C13.5389245,5.85274028 13.3609501,4.97608615 13.0051191,4.1395589 C12.6494062,3.30291362 12.1685919,2.58181013 11.5627941,1.97601239 C10.9569964,1.37021465 10.2360109,0.88940031 9.39948366,0.533687394 C8.56272037,0.177856458 7.68606624,0 6.76940326,0 C5.85274028,0 4.97608615,0.177856458 4.1395589,0.533687394 C3.30291362,0.88940031 2.58181013,1.37021465 1.97601239,1.97601239 C1.37021465,2.58181013 0.88940031,3.30303164 0.533687394,4.1395589 C0.177856458,4.97620417 0,5.85274028 0,6.76940326 C0,7.68606624 0.177856458,8.56248433 0.533687394,9.39924762 C0.88940031,10.2357749 1.37021465,10.9567603 1.97601239,11.5625581 C2.58181013,12.1684739 3.30303164,12.6491702 4.1395589,13.0050011 C4.97620417,13.360832 5.85274028,13.5386885 6.76940326,13.5386885 C8.1798628,13.5386885 9.45872981,13.1410784 10.6061223,12.3462123 L13.9041971,15.6346094 C14.1349266,15.8782031 14.423132,16 14.7695213,16 C15.1028104,16 15.3914878,15.8782031 15.6348455,15.6346094 C15.8784392,15.3911337 16.000236,15.1025743 16.000236,14.7692852 C16.0003541,14.4297411 15.8818618,14.1411817 15.6445231,13.9040791 L15.6445231,13.9040791 Z M9.81279044,9.8125544 C8.96977207,10.6555728 7.95538836,11.0770229 6.76940326,11.0770229 C5.58353618,11.0770229 4.56915247,10.6554547 3.7261341,9.8125544 C2.88311573,8.96953603 2.46166556,7.95527034 2.46166556,6.76928524 C2.46166556,5.58341816 2.88323375,4.56891643 3.7261341,3.72601608 C4.56903445,2.88299771 5.58353618,2.46154754 6.76940326,2.46154754 C7.95527034,2.46154754 8.96965405,2.88311573 9.81279044,3.72601608 C10.6558088,4.56891643 11.077377,5.58341816 11.077377,6.76928524 C11.077377,7.95527034 10.6556908,8.96953603 9.81279044,9.8125544 L9.81279044,9.8125544 Z" id="svg"></path>
        </g>
    </g>
</svg>