<?xml version="1.0" encoding="UTF-8" standalone="no"?>
<svg width="16px" height="16px" viewBox="0 0 16 16" version="1.1" xmlns="http://www.w3.org/2000/svg" xmlns:xlink="http://www.w3.org/1999/xlink">
    <!-- Generator: Sketch 41.2 (35397) - http://www.bohemiancoding.com/sketch -->
    <title>[icon]/shipping/dark</title>
    <desc>Created with Sketch.</desc>
    <defs></defs>
    <g id="Symbols" stroke="none" stroke-width="1" fill="none" fill-rule="evenodd">
        <g id="[icon]/shipping/dark" fill="#0288A7">
            <path d="M7.08333333,0 C5.9,0.0166666667 4.71666667,0.0833333333 3.55,0.2 C3.25,0.233333333 2.96666667,0.383333333 2.78333333,0.65 C1.91666667,1.88333333 1.18333333,2.91666667 0.516666667,3.73333333 L6.01666667,3.73333333 L7.08333333,0 Z M15.4833333,3.73333333 C14.8166667,2.91666667 14.0833333,1.88333333 13.2166667,0.65 C13.0333333,0.383333333 12.75,0.233333333 12.45,0.2 C11.2833333,0.0833333333 10.1,0.0166666667 8.91666667,0 L9.98333333,3.73333333 L15.4833333,3.73333333 Z M15.9833333,4.8 L10.1333333,4.8 L10.1333333,8.53333333 L5.86666667,8.53333333 L5.86666667,4.8 L0.0166666667,4.8 C0,4.85 0,4.91666667 0,4.96666667 L0,14.3833333 C0,14.9166667 0.383333333,15.3666667 0.9,15.45 C3.23333333,15.8166667 5.63333333,16 8,16 C10.3666667,16 12.75,15.8166667 15.1,15.45 C15.6166667,15.3666667 16,14.9166667 16,14.3833333 L16,4.96666667 C16,4.91666667 15.9833333,4.85 15.9833333,4.8 Z" id="box"></path>
        </g>
    </g>
</svg>