<?xml version="1.0" encoding="UTF-8" standalone="no"?>
<svg width="16px" height="16px" viewBox="0 0 16 16" version="1.1" xmlns="http://www.w3.org/2000/svg" xmlns:xlink="http://www.w3.org/1999/xlink">
    <!-- Generator: Sketch 41.2 (35397) - http://www.bohemiancoding.com/sketch -->
    <title>[icon]/social/twitter/dark</title>
    <desc>Created with Sketch.</desc>
    <defs></defs>
    <g id="Symbols" stroke="none" stroke-width="1" fill="none" fill-rule="evenodd">
        <g id="[icon]/social/twitter/dark" fill="#0288A7">
            <path d="M14.109375,4.0546875 C14.796875,3.6484375 15.3125,3 15.5546875,2.234375 C14.9296875,2.609375 14.21875,2.8828125 13.484375,3.03125 C12.8671875,2.40625 12.015625,2 11.0703125,2 C9.2578125,2 7.796875,3.4609375 7.796875,5.2734375 C7.796875,5.53125 7.8125,5.796875 7.8671875,6.03125 C5.1484375,5.8828125 2.7421875,4.6484375 1.109375,2.6640625 C0.8359375,3.1484375 0.6640625,3.6484375 0.6640625,4.2578125 C0.6640625,5.3828125 1.2421875,6.3828125 2.1328125,6.9765625 C1.59375,6.9609375 1.09375,6.8125 0.6484375,6.5703125 L0.6484375,6.609375 C0.6484375,8.203125 1.78125,9.53125 3.28125,9.828125 C3,9.90625 2.703125,9.9453125 2.40625,9.9453125 C2.203125,9.9453125 2,9.921875 1.796875,9.8828125 C2.203125,11.1796875 3.4296875,12.1484375 4.8515625,12.1640625 C3.7421875,13.0546875 2.3125,13.71875 0.78125,13.71875 C0.515625,13.71875 0.2578125,13.703125 0,13.6640625 C1.4453125,14.59375 3.1875,15 5.0390625,15 C11.0703125,15 14.3671875,10 14.3671875,5.6640625 L14.3671875,5.234375 C15,4.7734375 15.5546875,4.203125 16,3.53125 C15.40625,3.796875 14.78125,3.9765625 14.109375,4.0546875 Z" id="twitter"></path>
        </g>
    </g>
</svg>