<?xml version="1.0" encoding="UTF-8" standalone="no"?>
<svg width="16px" height="16px" viewBox="0 0 16 16" version="1.1" xmlns="http://www.w3.org/2000/svg" xmlns:xlink="http://www.w3.org/1999/xlink">
    <!-- Generator: Sketch 41.2 (35397) - http://www.bohemiancoding.com/sketch -->
    <title>[icon]/social/pinterest/dark</title>
    <desc>Created with Sketch.</desc>
    <defs></defs>
    <g id="Symbols" stroke="none" stroke-width="1" fill="none" fill-rule="evenodd">
        <g id="[icon]/social/pinterest/dark" fill="#0288A7">
            <path d="M2,5.7421875 C2,7.3125 2.59375,8.71875 3.875,9.2578125 C4.09375,9.3359375 4.28125,9.2578125 4.3359375,9.015625 C4.375,8.8671875 4.484375,8.4609375 4.5234375,8.28125 C4.578125,8.0546875 4.5546875,7.984375 4.390625,7.78125 C4.0234375,7.3359375 3.78125,6.78125 3.78125,5.9609375 C3.78125,3.6484375 5.5234375,1.5703125 8.3203125,1.5703125 C10.78125,1.5703125 12.1328125,3.0703125 12.1328125,5.09375 C12.1328125,7.7421875 10.96875,9.984375 9.2265625,9.984375 C8.2578125,9.984375 7.5390625,9.1875 7.7578125,8.203125 C8.0390625,7.0390625 8.578125,5.78125 8.578125,4.9453125 C8.578125,4.1875 8.171875,3.5703125 7.3359375,3.5703125 C6.3515625,3.5703125 5.578125,4.5703125 5.578125,5.9453125 C5.578125,6.8125 5.8515625,7.40625 5.8515625,7.40625 C5.8515625,7.40625 4.8515625,11.6640625 4.6875,12.40625 C4.3359375,13.890625 4.6328125,15.71875 4.6484375,15.90625 C4.671875,16 4.796875,16.0390625 4.875,15.9453125 C4.96875,15.8359375 6.1328125,14.390625 6.5234375,12.9453125 C6.6484375,12.5390625 7.171875,10.4296875 7.171875,10.4296875 C7.5,11.0390625 8.4296875,11.5546875 9.4296875,11.5546875 C10.8243292,11.5546875 12.0070186,10.9521127 12.8657818,9.93441596 C13.8206214,8.80286177 14.375,7.15810408 14.375,5.2578125 C14.375,2.5390625 12.078125,0 8.5546875,0 C4.1875,0 2,3.1328125 2,5.7421875 Z" id="pinterest"></path>
        </g>
    </g>
</svg>