<?xml version="1.0" encoding="UTF-8" standalone="no"?>
<svg width="16px" height="16px" viewBox="0 0 16 16" version="1.1" xmlns="http://www.w3.org/2000/svg" xmlns:xlink="http://www.w3.org/1999/xlink">
    <!-- Generator: Sketch 41.2 (35397) - http://www.bohemiancoding.com/sketch -->
    <title>[icon]/social/instagram/dark</title>
    <desc>Created with Sketch.</desc>
    <defs></defs>
    <g id="Symbols" stroke="none" stroke-width="1" fill="none" fill-rule="evenodd">
        <g id="[icon]/social/instagram/dark" fill="#0288A7">
            <path d="M13.6640625,0 L2.3359375,0 C1.046875,0 0,1.046875 0,2.3359375 L0,13.6640625 C0,14.953125 1.046875,16 2.3359375,16 L13.6640625,16 C14.953125,16 16,14.953125 16,13.6640625 L16,2.3359375 C16,1.046875 14.953125,0 13.6640625,0 L13.6640625,0 Z M14.3359375,4 C14.3359375,4.1875 14.1875,4.3359375 14,4.3359375 L12,4.3359375 C11.8125,4.3359375 11.6640625,4.1875 11.6640625,4 L11.6640625,2 C11.6640625,1.8125 11.8125,1.6640625 12,1.6640625 L14,1.6640625 C14.1875,1.6640625 14.3359375,1.8125 14.3359375,2 L14.3359375,4 Z M8,5 C9.65625,5 11,6.34375 11,8 C11,9.65625 9.65625,11 8,11 C6.34375,11 5,9.65625 5,8 C5,6.34375 6.34375,5 8,5 L8,5 Z M14.3359375,14 C14.3359375,14.1875 14.1875,14.3359375 14,14.3359375 L2,14.3359375 C1.8125,14.3359375 1.6640625,14.1875 1.6640625,14 L1.6640625,7 L3.4375,7 C3.3671875,7.3203125 3.3359375,7.65625 3.3359375,8 C3.3359375,10.578125 5.421875,12.6640625 8,12.6640625 C10.578125,12.6640625 12.6640625,10.578125 12.6640625,8 C12.6640625,7.65625 12.6328125,7.3203125 12.5625,7 L14.3359375,7 L14.3359375,14 Z" id="instagram"></path>
        </g>
    </g>
</svg>