<?xml version="1.0" encoding="UTF-8" standalone="no"?>
<svg width="16px" height="16px" viewBox="0 0 16 16" version="1.1" xmlns="http://www.w3.org/2000/svg" xmlns:xlink="http://www.w3.org/1999/xlink">
    <!-- Generator: Sketch 41.2 (35397) - http://www.bohemiancoding.com/sketch -->
    <title>[icon]/social/yelp/dark</title>
    <desc>Created with Sketch.</desc>
    <defs></defs>
    <g id="Symbols" stroke="none" stroke-width="1" fill="none" fill-rule="evenodd">
        <g id="[icon]/social/yelp/dark" fill="#0288A7">
            <path d="M8.53352184,6.1964879 L8.5031469,1.28334124 C8.5031469,0.394874229 8.16142881,0 7.71339844,0 C7.56152374,0 7.31852421,0.0835310869 7.11349336,0.159468439 L4.36456123,1.17702895 C3.9469058,1.33649739 3.70390627,1.51874703 3.70390627,1.76934029 C3.70390627,2.0503085 3.82540603,2.25533935 4.04562435,2.55908875 L7.05274348,6.65970574 C7.33371168,7.0393925 7.57671121,7.19886094 7.85008567,7.19886094 C8.29811605,7.19886094 8.53352184,6.89511153 8.53352184,6.1964879 L8.53352184,6.1964879 Z M10.2876747,8.74038918 C10.4851118,8.74038918 10.6673614,8.69482677 10.8496111,8.64167062 L14.0541673,7.7076412 C14.6768536,7.51779782 14.9426343,7.30517323 14.9426343,6.97104888 C14.9426343,6.67489321 14.8439158,6.5002373 14.5553538,6.18130043 L13.1125441,4.48030375 C12.8619509,4.18414808 12.7328574,4.07783579 12.5050453,4.07783579 C12.2316709,4.07783579 12.1025774,4.2752729 11.9582964,4.48030375 L9.90039417,7.7304224 C9.78648814,7.89748458 9.72573826,8.01898434 9.72573826,8.20882772 C9.72573826,8.53535833 9.93076911,8.74038918 10.2876747,8.74038918 L10.2876747,8.74038918 Z M6.7338066,8.7024205 L3.59000024,7.11532985 C3.25587589,6.94826768 3.07362625,6.87992406 2.83062673,6.87992406 C2.45093997,6.87992406 2.25350285,7.13811106 2.20794044,7.63170384 L2.01050333,10.1300427 C1.97253465,10.6691979 2.0256908,10.9577598 2.36740888,10.9577598 C2.61800214,10.9577598 2.86100167,10.9046037 3.17234481,10.8362601 L6.59711937,10.0768866 C7.02996227,9.97816801 7.22739939,9.72757475 7.22739939,9.3706692 C7.22739939,9.04413859 7.05274348,8.86188894 6.7338066,8.7024205 L6.7338066,8.7024205 Z M9.83964429,10.5856668 C9.83964429,10.752729 9.9079879,10.9046037 9.95355031,10.9805411 L11.8443904,14.1471286 C12.1481398,14.6407214 12.3227957,14.8153773 12.6341388,14.8153773 C12.8999196,14.8153773 13.1049504,14.7014713 13.2947938,14.4280968 L14.7603847,12.3246322 C14.8894782,12.1423825 14.9578218,11.9981016 14.9578218,11.7778832 C14.9578218,11.5348837 14.7907596,11.3906028 14.4186666,11.2766967 L10.8496111,10.1300427 C10.6749552,10.0768866 10.5458617,10.0389179 10.393987,10.0389179 C10.0750501,10.0389179 9.83964429,10.3122924 9.83964429,10.5856668 L9.83964429,10.5856668 Z M7.9639917,10.7906977 C7.74377338,10.7906977 7.58430494,10.89701 7.36408662,11.1324158 L4.82018534,13.934504 C4.65312317,14.1243474 4.55440461,14.2838159 4.55440461,14.5268154 C4.55440461,14.8761272 4.74424799,15.0583768 5.18468463,15.1950641 L7.36408662,15.886094 C7.60708615,15.9620313 7.75896085,16 7.92602302,16 C8.32089725,16 8.47277196,15.8025629 8.47277196,15.3241576 L8.53352184,11.3754153 C8.54111557,11.0640721 8.33608472,10.7906977 7.9639917,10.7906977 L7.9639917,10.7906977 Z" id="yelp"></path>
        </g>
    </g>
</svg>