<?xml version="1.0" encoding="UTF-8" standalone="no"?>
<svg width="16px" height="16px" viewBox="0 0 16 16" version="1.1" xmlns="http://www.w3.org/2000/svg" xmlns:xlink="http://www.w3.org/1999/xlink">
    <!-- Generator: Sketch 41.2 (35397) - http://www.bohemiancoding.com/sketch -->
    <title>[icon]/star/dark</title>
    <desc>Created with Sketch.</desc>
    <defs></defs>
    <g id="Symbols" stroke="none" stroke-width="1" fill="none" fill-rule="evenodd">
        <g id="[icon]/star/dark" fill="#0288A7">
            <path d="M15.9074491,6.57409132 C16.000042,6.48149848 16.0185605,6.33334994 15.9815234,6.20371997 C15.9259677,6.07409 15.7963377,6.00001574 15.6667078,6.00001574 L10.5555832,6.00001574 L8.31483662,0.222222805 C8.25928092,0.0925928354 8.12965095,0 8.00002098,0 C7.87039101,0 7.74076104,0.0925928354 7.68520534,0.222222805 L5.44445872,6.00001574 L0.333334208,6.00001574 C0.203704238,6.00001574 0.0740742683,6.07409 0.0185185671,6.20371997 C-0.0185185671,6.33334994 9.9639047e-14,6.48149848 0.0925928354,6.57409132 L3.98149192,10.4444718 L3.00000787,15.6111521 C2.9814893,15.740782 3.037045,15.870412 3.1481564,15.9444863 C3.25926781,16.0185605 3.40741634,16.0185605 3.51852775,15.9444863 L8.00002098,13.0555898 L12.4815142,15.9444863 C12.5370699,15.9815234 12.6111442,16.000042 12.6666999,16.000042 C12.7222556,16.000042 12.7963299,15.9815234 12.8518856,15.9444863 C12.962997,15.870412 13.0185527,15.740782 13.0000341,15.6111521 L12.01855,10.4444718 L15.9074491,6.57409132 Z" id="star"></path>
        </g>
    </g>
</svg>