<?xml version="1.0" encoding="UTF-8" standalone="no"?>
<svg width="16px" height="16px" viewBox="0 0 16 16" version="1.1" xmlns="http://www.w3.org/2000/svg" xmlns:xlink="http://www.w3.org/1999/xlink">
    <!-- Generator: Sketch 41.2 (35397) - http://www.bohemiancoding.com/sketch -->
    <title>[icon]/trash/dark</title>
    <desc>Created with Sketch.</desc>
    <defs></defs>
    <g id="Symbols" stroke="none" stroke-width="1" fill="none" fill-rule="evenodd">
        <g id="[icon]/trash/dark" fill="#0288A7">
            <path d="M4.26459771,2 L4.98333943,0.296297073 C5.001858,0.12962997 5.15000653,0 5.31667364,0 L10.6500314,0 C10.8166986,0 10.9648471,0.12962997 10.9833657,0.296297073 L11.7021074,2 L14.9833709,2 C15.1685566,2 15.3167051,2.14814854 15.3167051,2.33333421 L15.3167051,3.66667104 C15.3167051,3.85185671 15.1685566,4.00000525 14.9833709,4.00000525 L0.983334184,4.00000525 C0.798148513,4.00000525 0.649999976,3.85185671 0.649999976,3.66667104 L0.649999976,2.33333421 C0.649999976,2.14814854 0.798148513,2 0.983334184,2 L4.26459771,2 Z M1.98333681,5.33334208 L2.98333943,15.7037449 C3.001858,15.870412 3.15000653,16.000042 3.31667364,16.000042 L12.6500314,16.000042 C12.8166986,16.000042 12.9648471,15.870412 12.9833657,15.7037449 L13.9833683,5.33334208 L1.98333681,5.33334208 Z" id="trash"></path>
        </g>
    </g>
</svg>