<?xml version="1.0" encoding="UTF-8" standalone="no"?>
<svg width="16px" height="16px" viewBox="0 0 16 16" version="1.1" xmlns="http://www.w3.org/2000/svg" xmlns:xlink="http://www.w3.org/1999/xlink">
    <!-- Generator: Sketch 41.2 (35397) - http://www.bohemiancoding.com/sketch -->
    <title>[icon]/user/dark</title>
    <desc>Created with Sketch.</desc>
    <defs></defs>
    <g id="Symbols" stroke="none" stroke-width="1" fill="none" fill-rule="evenodd">
        <g id="[icon]/user/dark" fill="#0288A7">
            <path d="M16,14.999979 C16,11.6666457 10,12.3333124 10,9.66664569 C10,9.66664569 12,7.66664569 12,3.99997902 C12,1.79627532 10.2037037,-2.0980835e-05 8,-2.0980835e-05 C5.7962963,-2.0980835e-05 4,1.79627532 4,3.99997902 C4,7.66664569 6,9.66664569 6,9.66664569 C6,12.3333124 0,11.6666457 0,14.999979 L0,15.6666457 C0,15.8518309 0.148148148,15.999979 0.333333333,15.999979 L15.6666667,15.999979 C15.8518519,15.999979 16,15.8518309 16,15.6666457 L16,14.999979 Z" id="user"></path>
        </g>
    </g>
</svg>