<?xml version="1.0" encoding="UTF-8"?>
<svg width="16px" height="16px" viewBox="0 0 16 16" version="1.1" xmlns="http://www.w3.org/2000/svg" xmlns:xlink="http://www.w3.org/1999/xlink">
    <!-- Generator: Sketch 47.1 (45422) - http://www.bohemiancoding.com/sketch -->
    <title>[icons]/Icon/wishlist-add/--dark</title>
    <desc>Created with Sketch.</desc>
    <defs></defs>
    <g id="Symbols" stroke="none" stroke-width="1" fill="none" fill-rule="evenodd">
        <g id="[icons]/Icon/wishlist-add/--dark" fill-rule="nonzero" fill="#0288A7">
            <path d="M11.6,1 C10.208,1 8.872,1.648 8,2.672 C7.128,1.648 5.792,1 4.4,1 C1.936,1 0,2.936 0,5.4 C0,8.424 2.72,10.888 6.84,14.632 L8,15.68 L9.16,14.624 C13.28,10.888 16,8.424 16,5.4 C16,2.936 14.064,1 11.6,1 Z M8.08,13.44 L8,13.52 L7.92,13.44 C4.112,9.992 1.6,7.712 1.6,5.4 C1.6,3.8 2.8,2.6 4.4,2.6 C5.632,2.6 6.832,3.392 7.256,4.488 L8.752,4.488 C9.168,3.392 10.368,2.6 11.6,2.6 C13.2,2.6 14.4,3.8 14.4,5.4 C14.4,7.712 11.888,9.992 8.08,13.44 Z" id="wishlist-add"></path>
        </g>
    </g>
</svg>