<?xml version="1.0" encoding="UTF-8" standalone="no"?>
<svg width="16px" height="16px" viewBox="0 0 16 16" version="1.1" xmlns="http://www.w3.org/2000/svg" xmlns:xlink="http://www.w3.org/1999/xlink">
    <!-- Generator: Sketch 41.2 (35397) - http://www.bohemiancoding.com/sketch -->
    <title>[icon]/zoom/dark</title>
    <desc>Created with Sketch.</desc>
    <defs></defs>
    <g id="Symbols" stroke="none" stroke-width="1" fill="none" fill-rule="evenodd">
        <g id="[icon]/zoom/dark" fill="#0288A7">
            <path d="M10,0 C6.68518519,0 4,2.68518519 4,6 C4,7.18518519 4.33333333,8.27777778 4.92592593,9.2037037 L0.388888889,13.7222222 C-0.12962963,14.2407407 -0.12962963,15.0925926 0.388888889,15.6111111 C0.648148148,15.8703704 0.981481481,16 1.33333333,16 C1.66666667,16 2.01851852,15.8703704 2.27777778,15.6111111 L6.7962963,11.0740741 C7.72222222,11.6666667 8.81481481,12 10,12 C13.3148148,12 16,9.31481481 16,6 C16,2.68518519 13.3148148,0 10,0 L10,0 Z M13.3333333,7 L11,7 L11,9.33333333 L9,9.33333333 L9,7 L6.66666667,7 L6.66666667,5 L9,5 L9,2.66666667 L11,2.66666667 L11,5 L13.3333333,5 L13.3333333,7 Z" id="zoom"></path>
        </g>
    </g>
</svg>